<svg aria-hidden="true" focusable="false" data-prefix="fa-solid" data-icon="gear"
    class="svg-inline--fa fa-gear fa-w-16" role="img" xmlns="http://www.w3.org/2000/svg"
    viewBox="0 0 512 512">
    <path
        d="M499.954 332.005C499.954 326.345 496.842 320.874 491.75 317.934L445.137 291.023C447.235 279.648 448.477 267.977 448.477 256S447.235 232.352 445.137 220.977L491.75 194.066C496.842 191.126 499.954 185.655 499.954 179.995C499.954 165.898 457.979 80.953 436.09 80.953C433.258 80.953 430.403 81.68 427.844 83.156L381.125 110.133C363.411 94.98 342.897 83.098 320.477 75.16V21.281C320.477 13.758 315.315 7.004 307.95 5.461C291.321 1.977 274.145 0 256.477 0S221.633 1.977 205.004 5.461C197.639 7.004 192.477 13.758 192.477 21.281V75.16C170.057 83.098 149.543 94.98 131.828 110.133L85.11 83.156C82.553 81.68 79.694 80.953 76.864 80.953C57.143 80.953 13 162.9 13 179.995C13 185.655 16.112 191.126 21.203 194.066L67.817 220.977C65.719 232.352 64.477 244.023 64.477 256S65.719 279.648 67.817 291.023L21.203 317.934C16.112 320.874 13 326.345 13 332.005C13 346.102 54.975 431.047 76.864 431.047C79.696 431.047 82.551 430.32 85.11 428.844L131.828 401.867C149.543 417.02 170.057 428.902 192.477 436.84V490.719C192.477 498.242 197.639 504.996 205.004 506.539C221.633 510.023 238.809 512 256.477 512S291.321 510.023 307.95 506.539C315.315 504.996 320.477 498.242 320.477 490.719V436.84C342.897 428.902 363.411 417.02 381.125 401.867L427.844 428.844C430.401 430.32 433.26 431.047 436.09 431.047C455.81 431.047 499.954 349.1 499.954 332.005ZM256.477 336C212.366 336 176.477 300.113 176.477 256S212.366 176 256.477 176S336.477 211.887 336.477 256S300.588 336 256.477 336Z "
    />
</svg>
