<?xml version="1.0" encoding="UTF-8" standalone="no"?>
<svg
   xmlns:dc="http://purl.org/dc/elements/1.1/"
   xmlns:cc="http://creativecommons.org/ns#"
   xmlns:rdf="http://www.w3.org/1999/02/22-rdf-syntax-ns#"
   xmlns:svg="http://www.w3.org/2000/svg"
   xmlns="http://www.w3.org/2000/svg"
   xmlns:sodipodi="http://sodipodi.sourceforge.net/DTD/sodipodi-0.dtd"
   xmlns:inkscape="http://www.inkscape.org/namespaces/inkscape"
   aria-hidden="true"
   focusable="false"
   data-prefix="fa-solid"
   data-icon="grid-2"
   class="svg-inline--fa fa-grid-2 fa-w-16"
   role="img"
   viewBox="0 0 512 512"
   version="1.1"
   id="svg76"
   sodipodi:docname="grid-new-2.svg"
   inkscape:version="1.0.1 (3bc2e813f5, 2020-09-07)">
  <metadata
     id="metadata82">
    <rdf:RDF>
      <cc:Work
         rdf:about="">
        <dc:format>image/svg+xml</dc:format>
        <dc:type
           rdf:resource="http://purl.org/dc/dcmitype/StillImage" />
        <dc:title />
      </cc:Work>
    </rdf:RDF>
  </metadata>
  <defs
     id="defs80" />
  <sodipodi:namedview
     pagecolor="#ffffff"
     bordercolor="#666666"
     borderopacity="1"
     objecttolerance="10"
     gridtolerance="10"
     guidetolerance="10"
     inkscape:pageopacity="0"
     inkscape:pageshadow="2"
     inkscape:window-width="1920"
     inkscape:window-height="1017"
     id="namedview78"
     showgrid="false"
     inkscape:zoom="1.6601562"
     inkscape:cx="256"
     inkscape:cy="231.90588"
     inkscape:window-x="-8"
     inkscape:window-y="-8"
     inkscape:window-maximized="1"
     inkscape:current-layer="svg76"
     inkscape:document-rotation="0" />
  <path
     id="path74"
     style="stroke-width:0.892857"
     d="M 189.14286,32 H 74.857143 C 51.1875,32 32,51.1875 32,74.857143 V 189.14286 C 32,212.8125 51.1875,232 74.857143,232 H 189.14286 C 212.8125,232 232,212.8125 232,189.14286 V 74.857143 C 232,51.1875 212.8125,32 189.14286,32 Z m 248,248 H 322.85714 C 299.1875,280 280,299.1875 280,322.85714 V 437.14286 C 280,460.8125 299.1875,480 322.85714,480 H 437.14286 C 460.8125,480 480,460.8125 480,437.14286 V 322.85714 C 480,299.1875 460.8125,280 437.14286,280 Z m 0,-248 H 322.85714 C 299.1875,32 280,51.1875 280,74.857143 V 189.14286 C 280,212.8125 299.1875,232 322.85714,232 H 437.14286 C 460.8125,232 480,212.8125 480,189.14286 V 74.857143 C 480,51.1875 460.8125,32 437.14286,32 Z m -248,248 H 74.857143 C 51.1875,280 32,299.1875 32,322.85714 V 437.14286 C 32,460.8125 51.1875,480 74.857143,480 H 189.14286 C 212.8125,480 232,460.8125 232,437.14286 V 322.85714 C 232,299.1875 212.8125,280 189.14286,280 Z" />
</svg>
