<svg aria-hidden="true" focusable="false" data-prefix="fa-solid" data-icon="grid-2"
    class="svg-inline--fa fa-grid-2 fa-w-16" role="img" xmlns="http://www.w3.org/2000/svg"
    viewBox="0 0 512 512">
    <path
        d="M176 0H48C21.49 0 0 21.49 0 48V176C0 202.51 21.49 224 48 224H176C202.51 224 224 202.51 224 176V48C224 21.49 202.51 0 176 0ZM464 288H336C309.49 288 288 309.49 288 336V464C288 490.51 309.49 512 336 512H464C490.51 512 512 490.51 512 464V336C512 309.49 490.51 288 464 288ZM464 0H336C309.49 0 288 21.49 288 48V176C288 202.51 309.49 224 336 224H464C490.51 224 512 202.51 512 176V48C512 21.49 490.51 0 464 0ZM176 288H48C21.49 288 0 309.49 0 336V464C0 490.51 21.49 512 48 512H176C202.51 512 224 490.51 224 464V336C224 309.49 202.51 288 176 288Z"
        fill="currentColor"/>
</svg>
